<?xml version="1.0" encoding="utf-8"?>
<!-- Generator: Adobe Illustrator 26.4.1, SVG Export Plug-In . SVG Version: 6.00 Build 0)  -->
<svg version="1.1" id="Layer_1" xmlns="http://www.w3.org/2000/svg" xmlns:xlink="http://www.w3.org/1999/xlink" x="0px" y="0px"
	 viewBox="0 0 73.4 81" style="enable-background:new 0 0 73.4 81;" xml:space="preserve">
<g>
	<path d="M11.73,81C6.99,81,2.84,80.14,0,79.34l0.13-0.44c5.85,1.66,17.27,3.54,28.02-2.46c0.02-0.01,0.04-0.02,0.06-0.03
		c-1.93-1.12-3.84-2.62-5.37-4.59c-5.91-7.63-4.06-19.61-0.68-27.55c3.24-7.6,8.16-12.8,12.55-13.27c4.16-0.44,8.33,3.3,10.44,6.97
		c2.4,4.16,2.79,9.79,1.12,15.88c-2.49,9.05-9.17,17.81-17.13,22.56c4.15,2.23,8.21,2.78,8.47,2.81c4.47,0.57,9.03-0.2,13.21-2.25
		c10.97-5.36,14.59-18.02,16.98-26.4c1.11-3.87,1.75-7.46,3.28-25.61C71.77,16.62,72.4,8.23,72.95,0l0.46,0.03
		c-0.55,8.23-1.18,16.63-1.88,24.95c-1.53,18.19-2.18,21.8-3.29,25.7c-2.42,8.46-6.07,21.23-17.22,26.68
		c-4.26,2.08-8.92,2.87-13.47,2.29c-0.26-0.03-4.55-0.61-8.87-3c-0.1,0.06-0.2,0.11-0.3,0.17C22.71,79.99,16.87,81,11.73,81z
		 M35.39,31.41c-0.21,0-0.42,0.01-0.63,0.03c-4.22,0.45-9,5.55-12.18,12.99c-3.33,7.82-5.17,19.61,0.62,27.09
		c1.55,2,3.5,3.5,5.46,4.61c7.97-4.66,14.67-13.4,17.16-22.43c1.64-5.96,1.26-11.48-1.07-15.52C42.81,34.83,39.13,31.41,35.39,31.41
		z"/>
</g>
</svg>
