<?xml version="1.0" encoding="utf-8"?>
<!-- Generator: Adobe Illustrator 26.4.1, SVG Export Plug-In . SVG Version: 6.00 Build 0)  -->
<svg version="1.1" id="Layer_1" xmlns="http://www.w3.org/2000/svg" xmlns:xlink="http://www.w3.org/1999/xlink" x="0px" y="0px"
	 viewBox="0 0 46.79 81" style="enable-background:new 0 0 46.79 81;" xml:space="preserve">
<path d="M42.64,36.71L42.64,36.71c2.62-3.78,4.16-8.36,4.16-13.31C46.79,10.47,36.32,0,23.4,0S0,10.47,0,23.4
	c0,4.97,1.55,9.57,4.2,13.36h0c0.02,0.03,0.05,0.06,0.07,0.1c0.29,0.41,0.59,0.81,0.9,1.2c3.15,4.25,6.51,9.46,9.57,15.68
	c5.11,10.39,7.61,19.97,8.9,27.26c0.96-7.41,3.25-17.84,9.02-29.06c2.63-5.1,5.5-9.43,8.24-13.02c0.61-0.68,1.17-1.4,1.7-2.15
	C42.61,36.75,42.62,36.73,42.64,36.71z"/>
</svg>
