<?xml version="1.0" encoding="utf-8"?>
<!-- Generator: Adobe Illustrator 26.4.1, SVG Export Plug-In . SVG Version: 6.00 Build 0)  -->
<svg version="1.1" id="Layer_1" xmlns="http://www.w3.org/2000/svg" xmlns:xlink="http://www.w3.org/1999/xlink" x="0px" y="0px"
	 viewBox="0 0 5.27 81" style="enable-background:new 0 0 5.27 81;" xml:space="preserve">
<g>
	<path d="M5.22,8.19c0,0.08,0.01,0.16,0.01,0.24c0,21.77,0,43.54,0,65.3c0,0.09,0,0.18-0.01,0.27c-0.2,0.26-0.57,0.36-0.84,0.19
		c-0.24-0.15-0.43-0.38-0.61-0.64c-0.03-0.13-0.02-0.26-0.02-0.39c0-21.61,0-43.22,0-64.83c0-0.14-0.02-0.29,0.05-0.43
		c0.07-0.09,0.16-0.08,0.25-0.08c0.29,0,0.57,0,0.86,0C5.19,7.82,5.2,7.83,5.22,8.19z"/>
	<path d="M0.07,2.74c0.11-0.88,0.36-1.67,0.89-2.28C1.2,0.2,1.46,0.04,1.79,0.04C2.39,0.05,3.01,0.06,3.61,0
		C4.09-0.04,4.4,0.27,4.64,0.72C4.98,1.35,5.15,2.07,5.2,2.83C5.15,2.99,5.03,2.96,4.94,2.96c-0.41,0.01-0.81,0-1.22,0
		c-1.1,0-2.19,0-3.29,0c-0.08,0-0.17,0-0.25-0.02C0.09,2.92,0.04,2.87,0.07,2.74z"/>
	<path d="M1.69,78.25C1.63,78.18,1.58,78.11,1.55,78c-0.23-0.71-0.48-1.42-0.71-2.14c-0.23-0.72-0.47-1.44-0.72-2.15
		c-0.11-0.31-0.12-0.6-0.12-0.91c0-21.58,0-43.16,0-64.74c0-0.17,0-0.34,0-0.51C0.15,7.64,0.09,7.8,0.1,7.93
		C0.11,8.07,0.11,8.2,0.11,8.34c0,21.44,0,42.89,0,64.33c0,0.11,0.01,0.21,0,0.32c-0.01,0.21,0.04,0.38,0.18,0.5
		c0.06,0.05,0.1,0.12,0.15,0.18c0.26,0.36,0.48,0.35,0.72-0.03c0.1-0.1,0.13-0.32,0.31-0.29c0.09,0.09,0.09,0.22,0.11,0.35
		c0.07,0.51,0.14,1.02,0.21,1.53c0.14,0.96,0.28,1.92,0.41,2.88c0.01,0.1,0.05,0.2-0.06,0.23C1.98,78.39,1.83,78.35,1.69,78.25z"/>
	<path d="M5.24,4.44c0,0.37,0,0.75-0.01,1.12C5.16,5.65,5.07,5.64,4.98,5.64c-1.57,0-3.14,0-4.7,0c-0.08,0-0.17,0-0.24-0.07
		c-0.04-0.4-0.01-0.79-0.02-1.19c0-0.09,0.04-0.13,0.1-0.15C0.2,4.21,0.27,4.21,0.34,4.21c1.53,0,3.06,0,4.59,0
		c0.07,0,0.14,0,0.21,0.02C5.23,4.26,5.27,4.32,5.24,4.44z"/>
	<path d="M3.82,73.6c0.13,0.06,0.22,0.17,0.32,0.29c0.3,0.37,0.67,0.42,1.02,0.14C5.18,74.02,5.2,74.01,5.23,74
		c-0.16,0.51-0.37,0.99-0.55,1.48C4.34,76.38,4,77.26,3.66,78.15c-0.03,0.07-0.04,0.15-0.1,0.2c-0.33,0.1-0.66,0.14-1,0.12
		c-0.07-0.01-0.16,0.01-0.2-0.1c0.09-0.14,0.22-0.09,0.34-0.09c0.29-0.01,0.3,0,0.35-0.35c0.2-1.29,0.42-2.57,0.61-3.85
		c0.02-0.15,0.04-0.3,0.1-0.44C3.78,73.6,3.8,73.6,3.82,73.6z"/>
	<path d="M0.05,7.9C0.03,7.79,0.07,7.66,0.01,7.56c0.01-0.1-0.03-0.21,0.04-0.3c0.06-0.07,0.14-0.07,0.22-0.07
		C1.23,7.2,2.19,7.1,3.15,7.14c0.09,0,0.19-0.01,0.28,0.06c0.02,0.03,0.02,0.06,0,0.08c-0.09,0.08-0.19,0.06-0.3,0.06
		C2.69,7.37,2.24,7.32,1.8,7.39C1.65,7.41,1.59,7.49,1.6,7.68c0,0.11,0,0.23,0,0.34c0,21.58,0,43.15,0,64.73
		c0,0.19,0.04,0.39-0.06,0.57c-0.08,0.05-0.11-0.01-0.1-0.1c0-0.11,0-0.21,0-0.32c0-21.55,0-43.11,0-64.66
		c0-0.12,0.01-0.24-0.02-0.36c0-0.01,0.01-0.03-0.01-0.04c0,0.02-0.01,0.05-0.02,0.07C1.2,8.02,0.22,8.01,0.05,7.9z"/>
	<path d="M3.45,7.22c-0.68,0-1.35-0.03-2.03,0.04c-0.45,0.04-0.91,0-1.37,0c0-0.03,0-0.06,0-0.09c-0.04-0.1-0.02-0.21-0.02-0.31
		c0-0.33,0.01-0.35,0.28-0.35c1.55,0,3.11,0,4.66,0c0.11,0,0.3-0.07,0.27,0.23c0,0.16-0.01,0.32-0.01,0.48
		C5.17,7.29,5.09,7.3,5.02,7.3c-0.47,0-0.94,0.01-1.41-0.01C3.55,7.28,3.49,7.28,3.45,7.22z"/>
	<path d="M2.36,78.35c0.33,0.08,0.66,0.05,0.99-0.03c0.07-0.02,0.14-0.07,0.21,0.02c-0.3,0.87-0.6,1.75-0.91,2.65
		c-0.23-0.66-0.44-1.3-0.67-1.94c-0.1-0.27-0.17-0.56-0.3-0.81c0.15,0.02,0.3,0.03,0.45,0.05C2.2,78.36,2.3,78.23,2.36,78.35z"/>
	<path d="M0.01,4c0.01-0.37-0.04-0.75,0.03-1.12C0.11,3.18,0.29,3.2,0.5,3.19c0.68-0.01,1.36,0.03,2.04-0.02
		c0.79-0.06,1.59-0.02,2.38-0.04c0.11,0,0.22-0.02,0.31,0.08c0,0.13,0,0.26,0,0.39C5.13,3.72,5.02,3.69,4.9,3.69
		c-1.5,0-3.01,0-4.51,0c-0.12,0-0.27-0.05-0.28,0.21C0.1,3.97,0.07,4.01,0.01,4z"/>
	<path d="M5.23,3.22C3.61,3.24,2,3.25,0.38,3.27c-0.01,0-0.01,0-0.02,0c-0.31,0-0.31,0-0.32-0.39c0.01-0.05,0.02-0.09,0.03-0.14
		c0.01,0.18,0.12,0.14,0.2,0.14c0.98,0,1.96,0,2.93,0c0.59,0,1.18,0,1.77,0c0.07,0,0.15,0.03,0.22-0.04
		C5.26,2.96,5.22,3.09,5.23,3.22z"/>
	<path d="M0.01,4c0.03-0.02,0.05-0.03,0.08-0.05c0.07-0.09,0.16-0.08,0.25-0.08c1.55,0,3.09,0,4.64,0c0.09,0,0.18-0.01,0.25,0.08
		c0.03,0.16,0.08,0.33,0.01,0.49c0.01-0.16-0.08-0.15-0.17-0.15c-0.58,0-1.17,0-1.75,0c-1.02,0-2.04,0.01-3.07-0.01
		c-0.17,0-0.22,0.06-0.21,0.28c0.01,0.33,0,0.67,0,1c-0.01,0.02-0.02,0.02-0.04,0C0.01,5.04,0.01,4.52,0.01,4z"/>
	<path d="M5.24,6.73c0-0.16-0.09-0.15-0.17-0.15c-0.58,0-1.15,0-1.73,0c-1.01,0-2.03,0-3.04,0c-0.25,0-0.25,0-0.25,0.31
		c0,0.09,0,0.18,0,0.27c-0.08-0.31-0.02-0.62-0.03-0.93c0.07-0.08,0.16-0.07,0.25-0.07c1.57,0,3.14,0,4.71,0
		c0.09,0,0.18-0.01,0.25,0.08C5.23,6.4,5.32,6.57,5.24,6.73z"/>
	<path d="M0.01,5.56c0.01,0,0.02,0,0.04,0c1.73,0,3.46,0,5.19,0c0.06,0.16,0.05,0.33,0.01,0.49C5.11,5.99,4.98,5.98,4.84,5.98
		c-1.43,0-2.87,0-4.3,0c-0.2,0-0.4-0.02-0.54,0.22C0.01,5.99,0.01,5.77,0.01,5.56z"/>
	<path d="M0.01,6.2c0.01-0.3,0.16-0.3,0.34-0.3c1.56,0.01,3.12,0,4.68,0.01c0.09,0,0.21-0.06,0.21,0.15c0,0.06,0,0.13-0.01,0.19
		c-1.74,0-3.48,0-5.22,0C0.01,6.22,0.01,6.21,0.01,6.2z"/>
	<path d="M5.23,3.95c-1.71,0-3.43,0-5.14,0C0,3.65,0.02,3.61,0.26,3.61c1.66,0,3.31,0,4.97,0C5.23,3.72,5.23,3.83,5.23,3.95z"/>
	<path d="M3.45,7.22c0.59,0,1.19,0,1.78-0.01c0,0.33,0,0.65-0.01,0.98c0-0.29-0.14-0.3-0.32-0.29c-0.36,0.02-0.72,0-1.08,0
		C3.75,7.81,3.76,7.69,3.76,7.59c0-0.17-0.04-0.26-0.18-0.25c-0.06,0-0.11-0.01-0.15-0.07C3.44,7.25,3.44,7.24,3.45,7.22z"/>
	<path d="M3.43,7.27c0.38,0,0.38,0,0.39,0.49c0,0.05,0,0.1,0,0.14c0,21.9,0,43.8,0,65.7c-0.01,0.01-0.02,0.02-0.04,0.02
		c-0.28,0.11-0.5,0.33-0.74,0.53c-0.38,0.32-0.87,0.2-1.1-0.3c-0.1-0.21-0.24-0.37-0.4-0.5c0-0.01-0.01-0.02-0.01-0.03
		c0-21.67,0-43.34,0-65c0-0.27,0-0.54,0-0.8c0-0.14,0.03-0.19,0.15-0.2C2.26,7.25,2.85,7.27,3.43,7.27z"/>
	<path d="M1.55,2.15c-0.27,0-0.53,0-0.8,0c-0.07,0-0.15,0.02-0.1-0.14C0.8,1.54,0.99,1.09,1.32,0.77c0.13-0.13,0.27-0.2,0.44-0.19
		c0.19,0.01,0.38,0.01,0.57,0c0.12-0.01,0.18,0.05,0.19,0.2c0,0.41,0,0.81,0,1.22c0,0.15-0.07,0.15-0.15,0.15
		C2.1,2.15,1.82,2.15,1.55,2.15C1.55,2.15,1.55,2.15,1.55,2.15z"/>
	<path d="M0.05,7.9c0.44,0,0.88,0,1.33,0c0.06,0.06,0.06,0.14,0.06,0.22c0,0.08,0,0.16,0,0.24c0,21.47,0,42.95,0,64.42
		c0,0.32-0.04,0.6-0.21,0.83c-0.12,0.44-0.54,0.55-0.77,0.21c-0.07-0.1-0.12-0.21-0.21-0.27c-0.18-0.13-0.2-0.32-0.2-0.57
		c0-21.59,0-43.18,0-64.77C0.04,8.11,0.05,8,0.05,7.9z"/>
	<path d="M1.23,73.62c0.17-0.31,0.15-0.67,0.15-1.02c0-21.48,0-42.97,0-64.45c0-0.08,0-0.16,0-0.24c0-0.15,0-0.3,0-0.45
		c0.02,0,0.04,0,0.06-0.01C1.45,7.7,1.49,7.95,1.49,8.21c0,5.45,0,10.9,0,16.35c0,16.04,0,32.09,0,48.13c0,0.18,0.02,0.36-0.02,0.53
		c-0.01,0.06,0.01,0.09,0.06,0.09c0,0-0.01,0.01-0.01,0.01c0,0.07-0.03,0.07-0.07,0.04C1.35,73.4,1.33,73.57,1.23,73.62z"/>
	<path d="M1.45,73.37c0.02-0.01,0.05-0.02,0.07-0.04c0.21,0.03,0.32,0.21,0.42,0.42c0.29,0.58,0.68,0.66,1.13,0.28
		c0.15-0.12,0.28-0.28,0.45-0.36c0.09-0.04,0.17-0.08,0.26-0.05c-0.09,0.58-0.17,1.15-0.27,1.73c-0.15,0.95-0.31,1.89-0.45,2.84
		C3.04,78.32,3,78.35,2.91,78.35c-0.18,0-0.37,0-0.55,0c-0.08-0.02-0.16,0.01-0.23-0.05c0.03-0.01,0.07,0,0.05-0.07
		c-0.1-0.52-0.16-1.05-0.24-1.57c-0.15-1.08-0.31-2.15-0.47-3.22C1.48,73.41,1.46,73.39,1.45,73.37z"/>
	<path d="M2.6,80.65c-0.18-0.56-0.35-1.12-0.54-1.69C2.2,78.91,2.32,78.99,2.45,79c0.05,0,0.06,0.07,0.07,0.13
		c0.04,0.51,0.09,1.01,0.13,1.52C2.63,80.64,2.62,80.64,2.6,80.65z"/>
</g>
</svg>
