<?xml version="1.0" encoding="utf-8"?>
<!-- Generator: Adobe Illustrator 26.4.1, SVG Export Plug-In . SVG Version: 6.00 Build 0)  -->
<svg version="1.1" id="Layer_1" xmlns="http://www.w3.org/2000/svg" xmlns:xlink="http://www.w3.org/1999/xlink" x="0px" y="0px"
	 viewBox="0 0 81.04 81" style="enable-background:new 0 0 81.04 81;" xml:space="preserve">
<path d="M80.81,68.88c0,2.21,0,4.41,0,6.62c0,3.63-1.57,5.23-5.29,5.18c-14.6-0.24-28.06-4.21-40.39-12.15
	C22.08,60.12,12.48,48.79,6.2,34.66c-4.19-9.42-6.19-19.39-6.36-29.7c-0.06-3.43,1.75-5.25,5.14-5.27c4.69-0.02,9.38-0.02,14.07,0
	c3.8,0.02,5.2,1.66,5.59,5.36c0.5,4.78,1.24,9.55,2.19,14.25c0.58,2.83,0.31,5.07-1.97,7.05c-2.5,2.16-4.78,4.56-7.24,6.77
	c-1.32,1.19-1.57,2.25-0.63,3.91c5.36,9.45,12.51,17.22,21.5,23.3c1.82,1.23,3.8,2.23,5.6,3.48c1.25,0.86,2.06,0.51,2.99-0.45
	c2.39-2.46,4.86-4.84,7.25-7.31c2.01-2.09,3.88-2.85,7.07-1.79c4.11,1.37,8.63,1.49,12.97,2.17c1.55,0.24,3.39,0.11,4.55,0.93
	c1.03,0.72,1.67,2.49,1.82,3.87C81.01,63.76,80.81,66.33,80.81,68.88z"/>
</svg>
